<?xml version="1.0" encoding="utf-8"?>
<!-- Generator: Adobe Illustrator 24.1.1, SVG Export Plug-In . SVG Version: 6.00 Build 0)  -->
<svg version="1.1" id="Capa_1" xmlns="http://www.w3.org/2000/svg" xmlns:xlink="http://www.w3.org/1999/xlink" x="0px" y="0px"
	 viewBox="0 0 92 92" style="enable-background:new 0 0 92 92;" xml:space="preserve">
<style type="text/css">
	.st0{fill:#FFFFFF;}
</style>
<g>
	<path class="st0" d="M44.3,21.7c6,0,10.8-4.9,10.8-10.8S50.3,0,44.3,0S33.5,4.9,33.5,10.8S38.3,21.7,44.3,21.7z"/>
	<path class="st0" d="M68.3,1.9l-1.5-0.4c-0.2-0.1-0.5-0.1-0.7-0.1c-1.4,0-2.5,1-2.7,2.4l-1.8,15.5c-0.1,0.7-0.8,1.5-1.4,1.7
		l-10.6,3.2H36.8h-0.9h-1.3c-1.4,0-3.1,0.9-4,2L22,38.2c-0.9,1.2-1,3.2-0.2,4.4L28.7,55c0.7,1.2,2.3,2.2,3.7,2.2l3.1,15.1
		c0.4,1.8,1.8,4.2,3.3,5.4l6.6,5.5V87c0,2.8,2.2,5,5,5h0.4c2.8,0,5-2.2,5-5v-2.6c0.9-0.6,1.5-1.4,1.6-2.4c0.1-1-0.4-1.9-1.2-2.6
		l-0.4-0.3V57.8v-0.5V31l10-3.7c1.4-0.5,2.6-2,2.8-3.5l2.2-18.4C70.9,3.8,69.8,2.3,68.3,1.9z M45.4,60.8v8.7
		c-0.3-0.6-0.5-1.2-0.6-1.7l-1.3-6.9C43.4,60.8,45.4,60.8,45.4,60.8z M32.9,47.9l-3.4-5.5c-0.4-0.6-0.3-1.7,0.1-2.3l3.3-4.7
		L32.9,47.9L32.9,47.9z"/>
</g>
</svg>
